<svg id="Layer_1" data-name="Layer 1" xmlns="http://www.w3.org/2000/svg" width="457.65" height="528.46" viewBox="0 0 457.65 528.46"><defs><style>.cls-1{fill:#dbdbdb;}</style></defs><path class="cls-1" d="M205.22,455A32,32,0,0,0,229,444.36a32.16,32.16,0,0,0,56-21.61,8.4,8.4,0,0,0-16.8,0,15.41,15.41,0,0,1-30.81,0v-26.6l26.15-11.36a8.4,8.4,0,1,0-6.7-15.41L229,381.47l-27.85-12.1a8.4,8.4,0,1,0-6.7,15.4l26.14,11.37v26.61a15.4,15.4,0,0,1-30.79,0,8.4,8.4,0,0,0-16.8,0A32.23,32.23,0,0,0,205.22,455Z"/><path class="cls-1" d="M444.32,10.19a8.4,8.4,0,0,0-13.43-2.12L365.66,73.31A45.91,45.91,0,0,0,355.5,66.7a50.29,50.29,0,0,0-40.88-.42c-6.36-11.44-18.17-19.75-32.35-22.17l-.31,0a48.87,48.87,0,0,0-38.18,9.7A47.36,47.36,0,0,0,206.93,40c-14.19.82-26.94,7.62-34.8,18.06a49.66,49.66,0,0,0-39.3-5.08c-.21,0-.43.11-.64.17-13.68,4.22-24,13.83-28.57,25.83L27.15,2.46A8.4,8.4,0,0,0,13.72,4.59c-1.44,2.82-33.64,67.78,5.92,131.46A41.4,41.4,0,0,0,9,150.91c-6.25,15.12-2.38,31.9,9.06,43.37C6.73,205.8,3,222.58,9.26,237.68c5.92,14.11,19.82,24.16,35.81,26.43a39.27,39.27,0,0,0,1.24,13.95c0,.09,0,.18-.05.28a720.53,720.53,0,0,0,1.77,151,7.72,7.72,0,0,0,.19,1.05c9.86,39.57,53.22,82.94,92.8,92.79a7.34,7.34,0,0,0,1,.2,743.25,743.25,0,0,0,86.83,5.1,743.07,743.07,0,0,0,86.82-5.1,7.76,7.76,0,0,0,1.05-.2c39.57-9.86,82.94-53.22,92.8-92.79a7.72,7.72,0,0,0,.19-1.05A724.41,724.41,0,0,0,412.27,281a43.63,43.63,0,0,0,8.23-7.36c10.59-12.24,12.79-28.36,6.57-42.19,15-7.06,25-21.46,25-37.47v-.65c-.1-15.66-9.81-29.7-24.3-36.85,55.36-67.85,17-145.49,16.58-146.3ZM24.19,23.26l56,56A47.1,47.1,0,0,0,62,87.08C49.59,96,43.27,110.26,44.7,124.3A47.79,47.79,0,0,0,34,127.19C8.09,85.43,17.41,42.86,24.19,23.26ZM393.12,426.82c-8.61,33.46-46.47,71.3-79.93,79.93a724.75,724.75,0,0,1-168.61,0c-33.46-8.63-71.31-46.47-79.93-79.93a696.61,696.61,0,0,1-3.21-126.45c.37.28.69.61,1.08.88a47.93,47.93,0,0,0,28.06,8.85,49.86,49.86,0,0,0,13.14-1.76c4.42,12.45,15,22.41,29,26.7a49.26,49.26,0,0,0,15.52,2.1V437.77a47.65,47.65,0,0,0,47.6,47.6h66.36a47.66,47.66,0,0,0,47.6-47.6V329a41.79,41.79,0,0,0,5.31-7.46A50.22,50.22,0,0,0,356,321c13.46-6.37,22.37-18.36,24.36-31.71A50,50,0,0,0,396,288.14a708.09,708.09,0,0,1-2.85,138.67ZM165.05,333.76a46.22,46.22,0,0,0,7.59-3.67c7.88,10.44,20.63,17.2,34.78,18,1,.06,1.91.08,2.85.08a47.4,47.4,0,0,0,34-13.95A49.14,49.14,0,0,0,293,340.87v96.9a30.83,30.83,0,0,1-30.8,30.8H195.85a30.83,30.83,0,0,1-30.8-30.8v-104ZM435.23,194c0,11.71-9.49,22.08-22.57,24.65a8.4,8.4,0,0,0-4.76,13.71,22.78,22.78,0,0,1-.12,30.31,30.24,30.24,0,0,1-23.09,10,32.46,32.46,0,0,1-10.06-1.58,8.42,8.42,0,0,0-10.91,9.25c1.55,10.27-4.44,20.52-14.92,25.48s-23.86,3.62-32.85-3.18a8.39,8.39,0,0,0-13.25,4.8c-2.33,10-11.27,17.77-22.77,19.77s-23.32-2.39-29.76-10.89a8.2,8.2,0,0,0-7.25-3.3,8.38,8.38,0,0,0-6.75,4.22c-4.86,8.55-15,14.07-25.9,14.07-.59,0-1.19,0-1.86-.06-11.64-.63-21.66-7.27-25.54-16.91a8.4,8.4,0,0,0-6.13-5.1,7.8,7.8,0,0,0-1.66-.17,8.44,8.44,0,0,0-6,2.5c-7.64,7.74-20.3,10.78-31.46,7.36s-18.79-12.27-19.38-22.57a8.41,8.41,0,0,0-12.4-6.91c-10.26,5.58-24.14,4.85-33.59-1.91s-13.11-18.2-8.84-28.27a8.41,8.41,0,0,0-1-8.23,8.28,8.28,0,0,0-7.55-3.41c-13.22,1.19-25.68-5.74-30.19-16.48-4.59-11,0-23.19,11.2-29.67a8.39,8.39,0,0,0,0-14.56C24.65,180.53,20,168.35,24.53,157.33c4.46-10.8,16.92-17.78,30.09-16.64a8.26,8.26,0,0,0,7.54-3.43,8.41,8.41,0,0,0,.92-8.23c-4.32-10.07-.79-21.45,8.74-28.31A31.3,31.3,0,0,1,90.2,95a32.3,32.3,0,0,1,15.25,3.76,8.4,8.4,0,0,0,12.37-7c.54-10.12,7.9-18.89,18.81-22.44l.5-.14c11.15-3.44,23.84-.42,31.49,7.3a8.38,8.38,0,0,0,13.76-2.79c3.86-9.63,13.88-16.29,25.5-17s22.66,5,27.81,14a8.35,8.35,0,0,0,6.75,4.22,8.5,8.5,0,0,0,7.25-3.32c6.42-8.51,18.24-12.89,29.7-10.92l.28,0c11.37,2,20.23,9.73,22.58,19.68a8.4,8.4,0,0,0,13.28,4.74c8.86-6.78,22.31-8.17,32.81-3.23s16.49,15.15,15,25.43a8.4,8.4,0,0,0,10.94,9.21,32.55,32.55,0,0,1,10.14-1.6,30.35,30.35,0,0,1,23.05,10,22.65,22.65,0,0,1,3.21,25.77c-1.06,1.18-2.14,2.36-3.26,3.53a8.39,8.39,0,0,0,.22,11.88c.12.11.28.15.41.26a8.33,8.33,0,0,0,4.47,2.53c13.11,2.49,22.68,12.82,22.74,25.08Zm-7.58-67.38a41.22,41.22,0,0,0-7.55-12.73C410.44,102.8,395.2,97,379.91,98.33a39.66,39.66,0,0,0-3.81-11.72l57.68-57.67c6.31,18.69,14.93,58.23-6.13,97.67Z"/></svg>